<svg xmlns="http://www.w3.org/2000/svg" xmlns:xlink="http://www.w3.org/1999/xlink" width="558" zoomAndPan="magnify" viewBox="0 0 418.5 177.000001" height="236" preserveAspectRatio="xMidYMid meet" version="1.0"><defs><g/><clipPath id="dcc86a13ca"><path d="M 261 4 L 266.929688 4 L 266.929688 61 L 261 61 Z M 261 4 " clip-rule="nonzero"/></clipPath><clipPath id="97f3b945ab"><path d="M 261 61 L 266.929688 61 L 266.929688 97.699219 L 261 97.699219 Z M 261 61 " clip-rule="nonzero"/></clipPath><clipPath id="02de917660"><path d="M 159 61 L 166 61 L 166 97.699219 L 159 97.699219 Z M 159 61 " clip-rule="nonzero"/></clipPath><clipPath id="0149ab93bf"><path d="M 150.585938 0 L 167 0 L 167 57 L 150.585938 57 Z M 150.585938 0 " clip-rule="nonzero"/></clipPath></defs><path fill="#9edf9c" d="M 214.625 70.453125 C 203.988281 70.453125 195.320312 61.71875 195.320312 50.988281 C 195.320312 40.253906 203.988281 31.519531 214.625 31.519531 C 225.273438 31.519531 233.929688 40.253906 233.929688 50.988281 C 233.929688 61.71875 225.273438 70.453125 214.625 70.453125 Z M 214.625 29.40625 C 202.816406 29.40625 193.207031 39.085938 193.207031 50.988281 C 193.207031 62.890625 202.816406 72.570312 214.625 72.570312 C 226.4375 72.570312 236.046875 62.890625 236.046875 50.988281 C 236.046875 39.085938 226.4375 29.40625 214.625 29.40625 " fill-opacity="1" fill-rule="nonzero"/><path fill="#9edf9c" d="M 214.625 72.570312 C 202.816406 72.570312 193.207031 62.890625 193.207031 50.988281 C 193.207031 39.085938 202.816406 29.40625 214.625 29.40625 C 226.4375 29.40625 236.046875 39.085938 236.046875 50.988281 C 236.046875 62.890625 226.4375 72.570312 214.625 72.570312 Z M 214.625 16.863281 C 195.960938 16.863281 180.785156 32.167969 180.785156 50.988281 C 180.785156 69.804688 195.960938 85.113281 214.625 85.113281 C 233.289062 85.113281 248.476562 69.804688 248.476562 50.988281 C 248.476562 32.167969 233.289062 16.863281 214.625 16.863281 " fill-opacity="1" fill-rule="nonzero"/><path fill="#9edf9c" d="M 214.625 31.519531 C 203.988281 31.519531 195.320312 40.253906 195.320312 50.988281 C 195.320312 61.71875 203.988281 70.453125 214.625 70.453125 C 225.273438 70.453125 233.929688 61.71875 233.929688 50.988281 C 233.929688 40.253906 225.273438 31.519531 214.625 31.519531 " fill-opacity="1" fill-rule="nonzero"/><g clip-path="url(#dcc86a13ca)"><path fill="#9edf9c" d="M 261.648438 10.578125 L 261.648438 60.125 C 262.429688 59.53125 263.382812 59.207031 264.367188 59.207031 C 265.355469 59.207031 266.316406 59.53125 267.089844 60.125 L 267.089844 4.574219 C 264.035156 4.867188 261.648438 7.449219 261.648438 10.578125 " fill-opacity="1" fill-rule="nonzero"/></g><g clip-path="url(#97f3b945ab)"><path fill="#9edf9c" d="M 264.367188 61.324219 C 263.683594 61.324219 263.058594 61.597656 262.59375 62.105469 L 261.648438 63.128906 L 261.648438 94.941406 C 261.648438 96.316406 262.761719 97.429688 264.136719 97.429688 L 264.609375 97.429688 C 265.976562 97.429688 267.089844 96.316406 267.089844 94.941406 L 267.089844 63.128906 L 266.152344 62.105469 C 265.6875 61.597656 265.054688 61.324219 264.367188 61.324219 " fill-opacity="1" fill-rule="nonzero"/></g><g clip-path="url(#02de917660)"><path fill="#9edf9c" d="M 164.976562 62.789062 L 164.339844 62.097656 C 164.148438 61.894531 163.933594 61.726562 163.691406 61.605469 C 163.015625 61.253906 162.226562 61.230469 161.546875 61.546875 C 161.246094 61.691406 160.992188 61.875 160.78125 62.097656 L 160.144531 62.789062 L 160.140625 62.796875 L 159.890625 63.070312 L 159.890625 94.96875 C 159.890625 96.324219 160.976562 97.429688 162.324219 97.429688 L 162.902344 97.429688 C 164.242188 97.429688 165.335938 96.324219 165.335938 94.96875 L 165.335938 63.183594 L 164.980469 62.796875 L 164.976562 62.789062 " fill-opacity="1" fill-rule="nonzero"/></g><path fill="#9edf9c" d="M 169.316406 18.144531 C 169.316406 18.730469 168.78125 19.203125 168.117188 19.203125 L 164.308594 19.203125 C 163.652344 19.203125 163.109375 18.730469 163.109375 18.144531 L 163.109375 4.558594 C 162.941406 4.585938 162.6875 4.664062 162.519531 4.742188 L 162.519531 18.144531 C 162.519531 18.730469 161.980469 19.203125 161.320312 19.203125 L 157.121094 19.203125 C 156.453125 19.203125 155.917969 18.730469 155.917969 18.144531 L 155.917969 4.542969 L 155.558594 4.542969 L 155.558594 20.34375 C 155.558594 22.941406 157.902344 25.214844 161.125 25.761719 C 161.6875 25.851562 162.09375 26.289062 162.09375 26.796875 L 162.09375 59.230469 C 162.453125 59.199219 162.8125 59.207031 163.171875 59.242188 L 163.171875 26.789062 C 163.171875 26.289062 163.582031 25.851562 164.140625 25.753906 C 167.339844 25.195312 169.660156 22.925781 169.660156 20.34375 L 169.660156 4.542969 L 169.316406 4.542969 L 169.316406 18.144531 " fill-opacity="1" fill-rule="nonzero"/><path fill="#151516" d="M 210.796875 27.144531 C 199.609375 27.144531 190.503906 36.324219 190.503906 47.601562 C 190.503906 58.878906 199.609375 68.054688 210.796875 68.054688 C 221.988281 68.054688 231.089844 58.878906 231.089844 47.601562 C 231.089844 36.324219 221.988281 27.144531 210.796875 27.144531 Z M 210.796875 70.308594 C 198.363281 70.308594 188.25 60.125 188.25 47.601562 C 188.25 35.078125 198.363281 24.890625 210.796875 24.890625 C 223.230469 24.890625 233.34375 35.078125 233.34375 47.601562 C 233.34375 60.125 223.230469 70.308594 210.796875 70.308594 Z M 210.796875 14.601562 C 192.757812 14.601562 178.082031 29.40625 178.082031 47.601562 C 178.082031 65.796875 192.757812 80.597656 210.796875 80.597656 C 228.839844 80.597656 243.519531 65.796875 243.519531 47.601562 C 243.519531 29.40625 228.839844 14.601562 210.796875 14.601562 Z M 210.796875 82.851562 C 191.515625 82.851562 175.828125 67.039062 175.828125 47.601562 C 175.828125 28.160156 191.515625 12.347656 210.796875 12.347656 C 230.085938 12.347656 245.777344 28.160156 245.777344 47.601562 C 245.777344 67.039062 230.085938 82.851562 210.796875 82.851562 " fill-opacity="1" fill-rule="nonzero"/><path fill="#151516" d="M 210.796875 29.261719 C 200.773438 29.261719 192.621094 37.488281 192.621094 47.601562 C 192.621094 57.710938 200.773438 65.9375 210.796875 65.9375 C 220.820312 65.9375 228.976562 57.710938 228.976562 47.601562 C 228.976562 37.488281 220.820312 29.261719 210.796875 29.261719 Z M 210.796875 68.195312 C 199.53125 68.195312 190.363281 58.957031 190.363281 47.601562 C 190.363281 36.246094 199.53125 27.003906 210.796875 27.003906 C 222.066406 27.003906 231.230469 36.246094 231.230469 47.601562 C 231.230469 58.957031 222.066406 68.195312 210.796875 68.195312 " fill-opacity="1" fill-rule="nonzero"/><path fill="#151516" d="M 260.539062 54.695312 C 261.082031 54.695312 261.621094 54.773438 262.136719 54.925781 L 262.136719 2.589844 C 260.253906 3.285156 258.945312 5.089844 258.945312 7.191406 L 258.945312 54.921875 C 259.457031 54.769531 259.992188 54.695312 260.539062 54.695312 Z M 258.945312 60.183594 L 258.945312 91.554688 C 258.945312 92.304688 259.558594 92.914062 260.308594 92.914062 L 260.78125 92.914062 C 261.527344 92.914062 262.136719 92.304688 262.136719 91.554688 L 262.136719 60.179688 L 261.492188 59.480469 C 261.242188 59.207031 260.914062 59.066406 260.539062 59.066406 C 260.171875 59.066406 259.84375 59.207031 259.59375 59.480469 Z M 260.78125 95.171875 L 260.308594 95.171875 C 258.3125 95.171875 256.691406 93.550781 256.691406 91.554688 L 256.691406 59.742188 C 256.691406 59.457031 256.796875 59.183594 256.988281 58.976562 L 257.9375 57.953125 C 257.96875 57.917969 258.003906 57.878906 258.039062 57.84375 C 257.800781 57.894531 257.546875 57.863281 257.316406 57.746094 C 256.933594 57.558594 256.691406 57.167969 256.691406 56.738281 L 256.691406 7.191406 C 256.691406 3.484375 259.46875 0.421875 263.152344 0.0625 C 263.472656 0.03125 263.785156 0.136719 264.019531 0.351562 C 264.253906 0.5625 264.390625 0.867188 264.390625 1.1875 L 264.390625 56.738281 C 264.390625 57.167969 264.144531 57.558594 263.761719 57.75 C 263.539062 57.859375 263.285156 57.890625 263.046875 57.84375 C 263.085938 57.882812 263.121094 57.917969 263.15625 57.957031 L 264.09375 58.980469 C 264.285156 59.1875 264.390625 59.460938 264.390625 59.742188 L 264.390625 91.554688 C 264.390625 93.550781 262.769531 95.171875 260.78125 95.171875 " fill-opacity="1" fill-rule="nonzero"/><path fill="#151516" d="M 157.191406 60.117188 L 157.191406 91.582031 C 157.191406 92.316406 157.777344 92.914062 158.496094 92.914062 L 159.074219 92.914062 C 159.792969 92.914062 160.378906 92.316406 160.378906 91.582031 L 160.378906 60.234375 L 160.332031 60.183594 L 160.316406 60.167969 L 159.679688 59.476562 C 159.582031 59.371094 159.472656 59.285156 159.359375 59.226562 C 158.976562 59.027344 158.558594 59.015625 158.199219 59.183594 C 158.027344 59.265625 157.890625 59.359375 157.773438 59.484375 Z M 159.074219 95.171875 L 158.496094 95.171875 C 156.53125 95.171875 154.9375 93.5625 154.9375 91.582031 L 154.9375 59.683594 C 154.9375 59.40625 155.039062 59.140625 155.222656 58.933594 L 155.472656 58.65625 L 155.5 58.625 L 156.121094 57.949219 C 156.441406 57.609375 156.816406 57.339844 157.246094 57.140625 C 158.242188 56.671875 159.386719 56.699219 160.382812 57.21875 C 160.722656 57.386719 161.050781 57.636719 161.335938 57.941406 L 161.964844 58.625 L 161.988281 58.652344 L 162.339844 59.039062 C 162.53125 59.246094 162.636719 59.519531 162.636719 59.796875 L 162.636719 91.582031 C 162.636719 93.5625 161.039062 95.171875 159.074219 95.171875 " fill-opacity="1" fill-rule="nonzero"/><g clip-path="url(#0149ab93bf)"><path fill="#151516" d="M 152.859375 16.90625 L 152.859375 16.957031 C 152.859375 19 154.804688 20.808594 157.484375 21.261719 C 158.011719 21.347656 158.46875 21.597656 158.804688 21.953125 C 159.140625 21.601562 159.59375 21.347656 160.117188 21.253906 C 162.777344 20.792969 164.703125 18.984375 164.703125 16.957031 L 164.703125 16.910156 C 164.570312 16.929688 164.429688 16.945312 164.289062 16.945312 L 160.480469 16.945312 C 159.914062 16.945312 159.390625 16.75 158.984375 16.429688 C 158.578125 16.75 158.058594 16.945312 157.488281 16.945312 L 153.289062 16.945312 C 153.144531 16.945312 153 16.929688 152.859375 16.90625 Z M 159.347656 56.984375 C 159.308594 56.984375 159.273438 56.984375 159.234375 56.980469 C 158.929688 56.949219 158.632812 56.945312 158.355469 56.96875 C 158.039062 56.992188 157.730469 56.886719 157.5 56.671875 C 157.269531 56.457031 157.136719 56.15625 157.136719 55.84375 L 157.136719 23.492188 L 157.117188 23.484375 C 153.339844 22.851562 150.601562 20.105469 150.601562 16.957031 L 150.601562 1.15625 C 150.601562 0.535156 151.109375 0.03125 151.730469 0.03125 L 152.089844 0.03125 C 152.714844 0.03125 153.21875 0.535156 153.21875 1.15625 L 153.21875 14.675781 C 153.234375 14.683594 153.261719 14.6875 153.289062 14.6875 L 157.488281 14.6875 C 157.519531 14.6875 157.542969 14.683594 157.5625 14.675781 L 157.5625 1.355469 C 157.5625 0.914062 157.816406 0.515625 158.21875 0.332031 C 158.46875 0.214844 158.824219 0.105469 159.09375 0.0585938 C 159.421875 0.00390625 159.757812 0.0976562 160.011719 0.3125 C 160.261719 0.523438 160.410156 0.839844 160.410156 1.171875 L 160.410156 14.675781 C 160.425781 14.683594 160.449219 14.6875 160.480469 14.6875 L 164.289062 14.6875 C 164.320312 14.6875 164.34375 14.683594 164.359375 14.675781 L 164.359375 1.15625 C 164.359375 0.535156 164.863281 0.03125 165.488281 0.03125 L 165.832031 0.03125 C 166.457031 0.03125 166.960938 0.535156 166.960938 1.15625 L 166.960938 16.957031 C 166.960938 20.085938 164.246094 22.824219 160.507812 23.476562 L 160.472656 23.488281 L 160.472656 55.855469 C 160.472656 56.175781 160.339844 56.476562 160.101562 56.691406 C 159.894531 56.878906 159.625 56.984375 159.347656 56.984375 " fill-opacity="1" fill-rule="nonzero"/></g><g fill="#ffffff" fill-opacity="1"><g transform="translate(27.47598, 133.831575)"><g><path d="M 15.84375 -35.640625 C 16.78125 -35.640625 17.722656 -35.566406 18.671875 -35.421875 C 19.628906 -35.285156 20.5625 -35.132812 21.46875 -34.96875 C 21.957031 -34.863281 22.476562 -34.765625 23.03125 -34.671875 C 23.582031 -34.585938 23.894531 -34.546875 23.96875 -34.546875 C 24.488281 -34.441406 24.882812 -34.234375 25.15625 -33.921875 C 25.4375 -33.609375 25.789062 -33 26.21875 -32.09375 L 26.84375 -30.796875 L 26.84375 -29.546875 C 26.84375 -28.742188 26.738281 -28.15625 26.53125 -27.78125 C 26.382812 -27.53125 26.1875 -27.257812 25.9375 -26.96875 C 25.695312 -26.675781 25.429688 -26.394531 25.140625 -26.125 C 24.847656 -25.863281 24.546875 -25.640625 24.234375 -25.453125 C 23.921875 -25.265625 23.609375 -25.171875 23.296875 -25.171875 C 23.085938 -25.171875 22.832031 -25.222656 22.53125 -25.328125 C 22.238281 -25.429688 21.816406 -25.601562 21.265625 -25.84375 C 19.910156 -26.570312 19.078125 -26.9375 18.765625 -26.9375 C 18.585938 -26.9375 18.429688 -27.007812 18.296875 -27.15625 C 18.085938 -27.320312 17.722656 -27.441406 17.203125 -27.515625 C 16.679688 -27.585938 16.242188 -27.585938 15.890625 -27.515625 C 14.984375 -27.335938 14.113281 -26.976562 13.28125 -26.4375 C 12.445312 -25.90625 11.859375 -25.203125 11.515625 -24.328125 C 11.066406 -23.179688 11.082031 -22.242188 11.5625 -21.515625 C 11.738281 -21.242188 12.144531 -20.96875 12.78125 -20.6875 C 13.425781 -20.40625 14.128906 -20.132812 14.890625 -19.875 C 15.660156 -19.613281 16.421875 -19.378906 17.171875 -19.171875 C 17.921875 -18.960938 18.503906 -18.804688 18.921875 -18.703125 C 19.960938 -18.390625 20.992188 -17.984375 22.015625 -17.484375 C 23.035156 -16.984375 23.976562 -16.375 24.84375 -15.65625 C 25.71875 -14.945312 26.484375 -14.148438 27.140625 -13.265625 C 27.804688 -12.378906 28.3125 -11.378906 28.65625 -10.265625 C 29.175781 -8.492188 29.226562 -6.722656 28.8125 -4.953125 C 28.394531 -3.179688 27.507812 -1.53125 26.15625 0 C 23.414062 3.019531 19.382812 4.53125 14.0625 4.53125 C 13.226562 4.53125 12.25 4.457031 11.125 4.3125 C 10 4.175781 8.878906 3.941406 7.765625 3.609375 C 6.648438 3.285156 5.628906 2.851562 4.703125 2.3125 C 3.785156 1.78125 3.101562 1.097656 2.65625 0.265625 C 2.550781 0.0546875 2.472656 -0.109375 2.421875 -0.234375 C 2.367188 -0.359375 2.320312 -0.488281 2.28125 -0.625 C 2.25 -0.757812 2.222656 -0.914062 2.203125 -1.09375 C 2.191406 -1.269531 2.1875 -1.53125 2.1875 -1.875 C 2.1875 -2.78125 2.222656 -3.265625 2.296875 -3.328125 C 2.359375 -3.398438 2.390625 -3.503906 2.390625 -3.640625 C 2.390625 -3.742188 2.359375 -3.832031 2.296875 -3.90625 C 2.222656 -3.976562 2.203125 -4.171875 2.234375 -4.484375 C 2.273438 -4.796875 2.328125 -5.003906 2.390625 -5.109375 C 2.429688 -5.242188 2.429688 -5.363281 2.390625 -5.46875 C 2.328125 -5.539062 2.296875 -5.785156 2.296875 -6.203125 L 2.34375 -6.78125 L 2.390625 -6.671875 C 2.460938 -6.535156 2.535156 -6.585938 2.609375 -6.828125 C 2.609375 -6.898438 2.625 -6.953125 2.65625 -6.984375 C 2.726562 -7.296875 2.78125 -7.554688 2.8125 -7.765625 C 2.8125 -8.003906 2.847656 -8.125 2.921875 -8.125 C 2.984375 -8.125 3.015625 -8.070312 3.015625 -7.96875 C 3.015625 -7.863281 3.15625 -7.550781 3.4375 -7.03125 C 3.820312 -6.269531 4.367188 -5.578125 5.078125 -4.953125 C 5.796875 -4.328125 6.601562 -3.875 7.5 -3.59375 C 7.988281 -3.414062 8.578125 -3.273438 9.265625 -3.171875 C 9.960938 -3.066406 10.660156 -3.015625 11.359375 -3.015625 C 11.984375 -3.015625 12.640625 -3.066406 13.328125 -3.171875 C 14.023438 -3.273438 14.703125 -3.441406 15.359375 -3.671875 C 16.023438 -3.898438 16.617188 -4.222656 17.140625 -4.640625 C 17.660156 -5.054688 18.046875 -5.578125 18.296875 -6.203125 C 18.429688 -6.617188 18.503906 -7.117188 18.515625 -7.703125 C 18.535156 -8.296875 18.460938 -8.695312 18.296875 -8.90625 C 18.046875 -9.1875 17.398438 -9.566406 16.359375 -10.046875 C 15.316406 -10.535156 13.820312 -11.128906 11.875 -11.828125 C 10.59375 -12.273438 9.523438 -12.695312 8.671875 -13.09375 C 7.828125 -13.5 7.160156 -13.875 6.671875 -14.21875 C 5.109375 -15.332031 3.898438 -16.628906 3.046875 -18.109375 C 2.191406 -19.585938 1.765625 -21.296875 1.765625 -23.234375 C 1.765625 -24.273438 1.960938 -25.367188 2.359375 -26.515625 C 2.765625 -27.671875 3.3125 -28.75 4 -29.75 C 4.695312 -30.757812 5.5 -31.660156 6.40625 -32.453125 C 7.3125 -33.253906 8.25 -33.863281 9.21875 -34.28125 C 10.332031 -34.738281 11.414062 -35.078125 12.46875 -35.296875 C 13.53125 -35.523438 14.65625 -35.640625 15.84375 -35.640625 Z M 15.84375 -35.640625 "/></g></g></g><g fill="#ffffff" fill-opacity="1"><g transform="translate(58.168078, 133.831575)"><g><path d="M 35.28125 -36.109375 C 35.65625 -36.179688 36.078125 -36.21875 36.546875 -36.21875 C 37.023438 -36.21875 37.554688 -36.179688 38.140625 -36.109375 C 38.910156 -36.035156 39.5625 -35.910156 40.09375 -35.734375 C 40.632812 -35.566406 41.078125 -35.378906 41.421875 -35.171875 C 41.734375 -34.992188 42.015625 -34.890625 42.265625 -34.859375 C 42.710938 -34.753906 43.054688 -34.320312 43.296875 -33.5625 C 43.503906 -33.039062 43.609375 -27.253906 43.609375 -16.203125 C 43.609375 -11.691406 43.554688 -7.867188 43.453125 -4.734375 C 43.347656 -1.546875 43.140625 0.585938 42.828125 1.671875 C 42.484375 2.847656 42.117188 3.4375 41.734375 3.4375 C 41.597656 3.4375 41.476562 3.503906 41.375 3.640625 C 41.300781 3.785156 40.191406 3.859375 38.046875 3.859375 C 36.929688 3.859375 36.078125 3.835938 35.484375 3.796875 C 34.890625 3.765625 34.539062 3.734375 34.4375 3.703125 C 34.195312 3.628906 33.9375 3.453125 33.65625 3.171875 C 33.519531 3.035156 33.425781 2.914062 33.375 2.8125 C 33.320312 2.707031 33.273438 2.59375 33.234375 2.46875 C 33.203125 2.351562 33.160156 2.21875 33.109375 2.0625 C 33.054688 1.90625 32.960938 1.6875 32.828125 1.40625 C 32.648438 1.0625 32.472656 0.710938 32.296875 0.359375 C 32.128906 0.015625 31.957031 -0.363281 31.78125 -0.78125 C 31.613281 -1.226562 31.441406 -1.609375 31.265625 -1.921875 C 31.085938 -2.234375 30.929688 -2.492188 30.796875 -2.703125 C 30.554688 -3.117188 30.4375 -3.328125 30.4375 -3.328125 C 30.5 -3.328125 30.566406 -3.3125 30.640625 -3.28125 C 30.742188 -3.25 30.796875 -3.25 30.796875 -3.28125 C 30.796875 -3.414062 30.75 -3.613281 30.65625 -3.875 C 30.570312 -4.132812 30.515625 -4.285156 30.484375 -4.328125 L 31.3125 -4.21875 L 31.375 -4.21875 C 31.4375 -4.1875 31.546875 -4.160156 31.703125 -4.140625 C 31.859375 -4.117188 32.0625 -4.078125 32.3125 -4.015625 C 32.476562 -3.972656 32.640625 -3.9375 32.796875 -3.90625 C 32.953125 -3.875 33.066406 -3.835938 33.140625 -3.796875 C 33.378906 -3.691406 33.519531 -3.832031 33.5625 -4.21875 C 33.59375 -4.394531 33.613281 -4.695312 33.625 -5.125 C 33.644531 -5.5625 33.675781 -6.179688 33.71875 -6.984375 C 33.71875 -7.429688 33.722656 -7.992188 33.734375 -8.671875 C 33.753906 -9.347656 33.769531 -10.039062 33.78125 -10.75 C 33.800781 -11.46875 33.820312 -12.164062 33.84375 -12.84375 C 33.863281 -13.519531 33.875 -14.082031 33.875 -14.53125 C 33.90625 -19.019531 33.90625 -21.578125 33.875 -22.203125 C 33.832031 -22.929688 33.773438 -23.296875 33.703125 -23.296875 C 33.640625 -23.296875 33.609375 -23.242188 33.609375 -23.140625 C 33.609375 -23.097656 33.5625 -22.960938 33.46875 -22.734375 C 33.382812 -22.515625 33.222656 -22.160156 32.984375 -21.671875 C 32.535156 -20.804688 32.101562 -19.984375 31.6875 -19.203125 C 31.269531 -18.421875 30.882812 -17.628906 30.53125 -16.828125 C 30.394531 -16.554688 30.25 -16.253906 30.09375 -15.921875 C 29.9375 -15.585938 29.71875 -15.175781 29.4375 -14.6875 C 29.40625 -14.582031 29.316406 -14.414062 29.171875 -14.1875 C 29.035156 -13.96875 28.90625 -13.726562 28.78125 -13.46875 C 28.664062 -13.207031 28.546875 -12.953125 28.421875 -12.703125 C 28.304688 -12.460938 28.210938 -12.289062 28.140625 -12.1875 C 27.617188 -11.082031 27.050781 -10.285156 26.4375 -9.796875 C 25.832031 -9.304688 25.0625 -8.957031 24.125 -8.75 C 23.15625 -8.539062 22.515625 -8.472656 22.203125 -8.546875 C 21.742188 -8.648438 21.210938 -8.976562 20.609375 -9.53125 C 20.003906 -10.09375 19.40625 -10.726562 18.8125 -11.4375 C 18.21875 -12.144531 17.703125 -12.875 17.265625 -13.625 C 16.835938 -14.375 16.570312 -15.007812 16.46875 -15.53125 C 16.4375 -15.769531 16.28125 -16.28125 16 -17.0625 C 15.71875 -17.84375 15.410156 -18.664062 15.078125 -19.53125 C 14.753906 -20.40625 14.441406 -21.179688 14.140625 -21.859375 C 13.847656 -22.535156 13.632812 -22.890625 13.5 -22.921875 C 13.351562 -22.921875 13.226562 -22.867188 13.125 -22.765625 C 12.988281 -22.628906 12.882812 -22.09375 12.8125 -21.15625 C 12.78125 -20.394531 12.726562 -19.835938 12.65625 -19.484375 C 12.625 -19.347656 12.597656 -19.207031 12.578125 -19.0625 C 12.566406 -18.925781 12.5625 -18.753906 12.5625 -18.546875 C 12.5625 -18.335938 12.550781 -18.128906 12.53125 -17.921875 C 12.507812 -17.710938 12.484375 -17.472656 12.453125 -17.203125 C 12.421875 -16.785156 12.367188 -16.316406 12.296875 -15.796875 C 12.296875 -15.648438 12.273438 -15.28125 12.234375 -14.6875 C 12.203125 -14.101562 12.171875 -13.632812 12.140625 -13.28125 C 12.109375 -12.96875 12.082031 -12.5625 12.0625 -12.0625 C 12.039062 -11.5625 12.03125 -11.023438 12.03125 -10.453125 C 12.03125 -9.878906 12.039062 -9.320312 12.0625 -8.78125 C 12.082031 -8.238281 12.09375 -7.796875 12.09375 -7.453125 C 12.125 -6.648438 12.144531 -5.988281 12.15625 -5.46875 C 12.175781 -4.945312 12.171875 -4.546875 12.140625 -4.265625 C 12.066406 -3.054688 12.117188 -1.410156 12.296875 0.671875 C 12.367188 1.503906 12.054688 2.285156 11.359375 3.015625 C 10.628906 3.785156 9.601562 4.253906 8.28125 4.421875 C 8.007812 4.460938 7.8125 4.5 7.6875 4.53125 C 7.5625 4.5625 7.46875 4.597656 7.40625 4.640625 C 7.332031 4.640625 7.078125 4.539062 6.640625 4.34375 C 6.210938 4.15625 5.753906 3.785156 5.265625 3.234375 C 5.015625 2.953125 4.796875 2.710938 4.609375 2.515625 C 4.421875 2.328125 4.238281 2.148438 4.0625 1.984375 C 3.820312 1.773438 3.613281 1.476562 3.4375 1.09375 C 3.300781 0.78125 3.179688 0.410156 3.078125 -0.015625 C 2.972656 -0.453125 2.9375 -0.691406 2.96875 -0.734375 C 3 -0.765625 3.050781 -2.832031 3.125 -6.9375 C 3.15625 -11.03125 3.207031 -13.859375 3.28125 -15.421875 C 3.488281 -19.421875 3.617188 -22.671875 3.671875 -25.171875 C 3.722656 -27.671875 3.710938 -29.425781 3.640625 -30.4375 C 3.472656 -32.445312 3.234375 -33.695312 2.921875 -34.1875 C 2.816406 -34.425781 2.78125 -34.5625 2.8125 -34.59375 C 2.84375 -34.632812 3.273438 -34.722656 4.109375 -34.859375 C 5.085938 -35.035156 5.785156 -35.140625 6.203125 -35.171875 C 6.828125 -35.242188 7.15625 -35.257812 7.1875 -35.21875 C 7.257812 -35.15625 7.570312 -35.125 8.125 -35.125 C 9.6875 -35.082031 10.800781 -34.800781 11.46875 -34.28125 C 11.8125 -34.039062 12.207031 -33.867188 12.65625 -33.765625 C 13.695312 -33.523438 14.566406 -33.289062 15.265625 -33.0625 C 15.960938 -32.832031 16.5625 -32.523438 17.0625 -32.140625 C 17.570312 -31.765625 18.015625 -31.265625 18.390625 -30.640625 C 18.773438 -30.015625 19.191406 -29.179688 19.640625 -28.140625 C 19.816406 -27.691406 19.960938 -27.3125 20.078125 -27 C 20.203125 -26.6875 20.316406 -26.425781 20.421875 -26.21875 C 21.398438 -24.09375 22.21875 -22.023438 22.875 -20.015625 L 23.078125 -19.546875 L 23.234375 -19.796875 C 23.441406 -20.109375 23.71875 -20.617188 24.0625 -21.328125 C 24.414062 -22.046875 24.800781 -22.851562 25.21875 -23.75 C 25.632812 -24.65625 26.066406 -25.601562 26.515625 -26.59375 C 26.972656 -27.59375 27.382812 -28.535156 27.75 -29.421875 C 28.113281 -30.304688 28.414062 -31.085938 28.65625 -31.765625 C 28.90625 -32.441406 29.03125 -32.914062 29.03125 -33.1875 C 29.0625 -33.394531 29.128906 -33.539062 29.234375 -33.625 C 29.335938 -33.71875 29.53125 -33.867188 29.8125 -34.078125 C 30.019531 -34.210938 30.332031 -34.382812 30.75 -34.59375 C 31.164062 -34.800781 31.585938 -35 32.015625 -35.1875 C 32.453125 -35.382812 32.878906 -35.550781 33.296875 -35.6875 C 33.710938 -35.832031 34.039062 -35.90625 34.28125 -35.90625 C 34.351562 -35.90625 34.472656 -35.921875 34.640625 -35.953125 C 34.816406 -35.984375 35.03125 -36.035156 35.28125 -36.109375 Z M 35.28125 -36.109375 "/></g></g></g><g fill="#ffffff" fill-opacity="1"><g transform="translate(105.378664, 133.831575)"><g><path d="M 19.90625 -21.78125 C 19.769531 -22.125 19.664062 -22.296875 19.59375 -22.296875 C 19.3125 -22.296875 18.789062 -21.082031 18.03125 -18.65625 C 16.914062 -15.175781 16.378906 -13.421875 16.421875 -13.390625 C 16.453125 -13.359375 17.039062 -13.410156 18.1875 -13.546875 C 18.632812 -13.617188 19.101562 -13.6875 19.59375 -13.75 C 20.082031 -13.820312 20.601562 -13.894531 21.15625 -13.96875 C 21.570312 -14.03125 21.882812 -14.078125 22.09375 -14.109375 C 22.300781 -14.148438 22.421875 -14.171875 22.453125 -14.171875 C 22.554688 -14.203125 22.210938 -15.398438 21.421875 -17.765625 C 20.648438 -19.953125 20.144531 -21.289062 19.90625 -21.78125 Z M 14.0625 -35.75 C 14.550781 -35.851562 15.285156 -35.851562 16.265625 -35.75 C 17.265625 -35.644531 18.113281 -35.546875 18.8125 -35.453125 C 19.507812 -35.367188 20.03125 -35.289062 20.375 -35.21875 C 21.101562 -35.113281 22.210938 -34.800781 23.703125 -34.28125 C 25.097656 -33.9375 26.039062 -33.488281 26.53125 -32.9375 C 26.84375 -32.65625 27.238281 -31.851562 27.71875 -30.53125 C 27.96875 -29.875 28.300781 -28.921875 28.71875 -27.671875 C 29.132812 -26.421875 29.65625 -24.835938 30.28125 -22.921875 C 30.757812 -21.460938 31.144531 -20.28125 31.4375 -19.375 C 31.738281 -18.476562 31.976562 -17.804688 32.15625 -17.359375 C 32.320312 -16.796875 32.484375 -16.304688 32.640625 -15.890625 C 32.796875 -15.472656 32.925781 -15.09375 33.03125 -14.75 C 33.207031 -14.332031 33.351562 -13.957031 33.46875 -13.625 C 33.59375 -13.289062 33.691406 -13.003906 33.765625 -12.765625 C 34.210938 -11.648438 34.632812 -10.53125 35.03125 -9.40625 C 35.4375 -8.28125 35.8125 -7.09375 36.15625 -5.84375 C 36.539062 -4.550781 36.835938 -3.492188 37.046875 -2.671875 C 37.253906 -1.859375 37.410156 -1.070312 37.515625 -0.3125 C 37.660156 0.59375 37.757812 1.296875 37.8125 1.796875 C 37.863281 2.296875 37.90625 2.6875 37.9375 2.96875 C 37.96875 3.28125 37.984375 3.488281 37.984375 3.59375 C 37.921875 3.59375 37.757812 3.703125 37.5 3.921875 C 37.238281 4.148438 37.019531 4.265625 36.84375 4.265625 C 36.707031 4.265625 36.550781 4.316406 36.375 4.421875 C 36.226562 4.523438 35.097656 4.597656 32.984375 4.640625 L 29.75 4.640625 L 29.28125 4.375 C 29.007812 4.269531 28.679688 4.023438 28.296875 3.640625 C 28.085938 3.429688 27.9375 3.265625 27.84375 3.140625 C 27.757812 3.023438 27.707031 2.941406 27.6875 2.890625 C 27.675781 2.835938 27.675781 2.789062 27.6875 2.75 C 27.707031 2.71875 27.6875 2.6875 27.625 2.65625 C 27.519531 2.550781 27.46875 2.460938 27.46875 2.390625 C 27.46875 2.328125 27.257812 2.101562 26.84375 1.71875 C 26.457031 1.332031 26.195312 1.035156 26.0625 0.828125 C 26.019531 0.765625 25.976562 0.679688 25.9375 0.578125 C 25.90625 0.472656 25.835938 0.332031 25.734375 0.15625 C 25.460938 -0.226562 25.5 -0.367188 25.84375 -0.265625 C 25.988281 -0.265625 26.078125 -0.347656 26.109375 -0.515625 C 26.140625 -0.765625 26.207031 -0.816406 26.3125 -0.671875 C 26.382812 -0.609375 26.421875 -0.644531 26.421875 -0.78125 L 26.421875 -1.453125 C 26.347656 -2.148438 26.210938 -2.851562 26.015625 -3.5625 C 25.828125 -4.28125 25.546875 -5.195312 25.171875 -6.3125 L 24.90625 -7.03125 L 24.171875 -6.984375 C 23.515625 -6.910156 22.679688 -6.78125 21.671875 -6.59375 C 20.671875 -6.40625 19.472656 -6.132812 18.078125 -5.78125 C 17.804688 -5.71875 17.554688 -5.660156 17.328125 -5.609375 C 17.097656 -5.554688 16.898438 -5.492188 16.734375 -5.421875 C 16.585938 -5.390625 16.347656 -5.335938 16.015625 -5.265625 C 15.691406 -5.191406 15.25 -5.066406 14.6875 -4.890625 C 13.644531 -4.617188 13.070312 -4.429688 12.96875 -4.328125 C 12.832031 -4.179688 12.625 -3.742188 12.34375 -3.015625 C 11.96875 -2.046875 11.5625 -1.160156 11.125 -0.359375 C 10.6875 0.429688 10.191406 1.226562 9.640625 2.03125 C 9.328125 2.445312 9.171875 2.707031 9.171875 2.8125 C 9.171875 2.84375 9.015625 3.015625 8.703125 3.328125 L 8.234375 3.859375 L 7.296875 3.796875 C 6.742188 3.765625 6.378906 3.695312 6.203125 3.59375 C 6.128906 3.5625 5.867188 3.648438 5.421875 3.859375 C 4.753906 4.171875 4.390625 4.222656 4.328125 4.015625 C 4.285156 3.941406 4.1875 3.851562 4.03125 3.75 C 3.875 3.644531 3.625 3.554688 3.28125 3.484375 C 3.175781 3.453125 3.125 3.363281 3.125 3.21875 C 3.125 3.082031 3.070312 3.015625 2.96875 3.015625 C 2.832031 3.015625 2.609375 2.820312 2.296875 2.4375 C 1.984375 2.0625 1.804688 1.769531 1.765625 1.5625 C 1.765625 1.320312 1.695312 1.128906 1.5625 0.984375 C 1.320312 0.710938 1.253906 -0.203125 1.359375 -1.765625 C 1.421875 -2.328125 1.453125 -2.609375 1.453125 -2.609375 C 1.523438 -2.816406 1.578125 -3.003906 1.609375 -3.171875 C 1.753906 -3.554688 1.929688 -3.90625 2.140625 -4.21875 C 2.378906 -4.601562 2.523438 -4.890625 2.578125 -5.078125 C 2.628906 -5.273438 2.742188 -5.492188 2.921875 -5.734375 C 3.085938 -5.941406 3.273438 -6.234375 3.484375 -6.609375 C 3.691406 -6.992188 3.9375 -7.5 4.21875 -8.125 C 4.394531 -8.613281 4.535156 -8.988281 4.640625 -9.25 C 4.742188 -9.507812 4.8125 -9.691406 4.84375 -9.796875 C 4.84375 -9.929688 4.894531 -10.125 5 -10.375 C 5.382812 -11.238281 5.957031 -12.78125 6.71875 -15 C 6.96875 -15.695312 7.171875 -16.28125 7.328125 -16.75 C 7.484375 -17.21875 7.613281 -17.59375 7.71875 -17.875 C 8.238281 -19.363281 8.757812 -20.898438 9.28125 -22.484375 C 9.800781 -24.066406 10.300781 -25.707031 10.78125 -27.40625 C 11.820312 -30.84375 12.257812 -32.894531 12.09375 -33.5625 C 12.050781 -33.726562 11.976562 -33.863281 11.875 -33.96875 C 11.738281 -34.070312 11.8125 -34.226562 12.09375 -34.4375 C 12.300781 -34.582031 12.367188 -34.695312 12.296875 -34.78125 C 12.222656 -34.863281 12.328125 -34.992188 12.609375 -35.171875 C 13.128906 -35.484375 13.613281 -35.675781 14.0625 -35.75 Z M 14.0625 -35.75 "/></g></g></g><g fill="#ffffff" fill-opacity="1"><g transform="translate(144.303947, 133.831575)"><g><path d="M 18.453125 -27.515625 C 17.515625 -27.515625 16.4375 -27.375 15.21875 -27.09375 C 14.519531 -26.988281 14.117188 -26.898438 14.015625 -26.828125 C 13.910156 -26.765625 13.875 -26.539062 13.90625 -26.15625 C 13.945312 -25.914062 13.957031 -25.613281 13.9375 -25.25 C 13.914062 -24.882812 13.875 -24.457031 13.8125 -23.96875 C 13.769531 -23.519531 13.738281 -22.972656 13.71875 -22.328125 C 13.707031 -21.679688 13.664062 -20.925781 13.59375 -20.0625 C 13.488281 -18.363281 13.457031 -17.492188 13.5 -17.453125 C 13.601562 -17.347656 14.207031 -17.453125 15.3125 -17.765625 C 15.84375 -17.910156 16.421875 -18.085938 17.046875 -18.296875 C 17.671875 -18.503906 18.273438 -18.753906 18.859375 -19.046875 C 19.453125 -19.335938 20 -19.675781 20.5 -20.0625 C 21.007812 -20.445312 21.421875 -20.863281 21.734375 -21.3125 C 22.179688 -22.007812 22.40625 -22.945312 22.40625 -24.125 C 22.332031 -25.519531 22 -26.429688 21.40625 -26.859375 C 20.820312 -27.296875 19.835938 -27.515625 18.453125 -27.515625 Z M 17.453125 -35.4375 C 18.078125 -35.4375 18.796875 -35.398438 19.609375 -35.328125 C 20.429688 -35.253906 21.238281 -35.148438 22.03125 -35.015625 C 22.832031 -34.878906 23.613281 -34.707031 24.375 -34.5 C 25.144531 -34.289062 25.789062 -34.046875 26.3125 -33.765625 C 28.125 -32.828125 29.632812 -31.679688 30.84375 -30.328125 C 32.0625 -28.972656 32.828125 -27.582031 33.140625 -26.15625 C 33.523438 -24.519531 33.457031 -22.851562 32.9375 -21.15625 C 32.832031 -20.707031 32.675781 -20.25 32.46875 -19.78125 C 32.257812 -19.3125 32.03125 -18.859375 31.78125 -18.421875 C 31.539062 -17.984375 31.28125 -17.582031 31 -17.21875 C 30.726562 -16.851562 30.46875 -16.566406 30.21875 -16.359375 C 29.945312 -16.117188 29.710938 -15.898438 29.515625 -15.703125 C 29.328125 -15.515625 29.164062 -15.351562 29.03125 -15.21875 C 28.363281 -14.59375 27.976562 -14.28125 27.875 -14.28125 C 27.84375 -14.382812 27.789062 -14.4375 27.71875 -14.4375 C 27.65625 -14.4375 27.625 -14.398438 27.625 -14.328125 C 27.625 -14.253906 27.46875 -14.113281 27.15625 -13.90625 C 26.695312 -13.738281 26.347656 -13.53125 26.109375 -13.28125 C 25.691406 -12.96875 25.378906 -12.78125 25.171875 -12.71875 L 24.859375 -12.5625 C 24.816406 -12.5625 24.78125 -12.539062 24.75 -12.5 C 24.75 -12.363281 25.757812 -11.289062 27.78125 -9.28125 C 29.0625 -7.957031 30.144531 -6.816406 31.03125 -5.859375 C 31.914062 -4.898438 32.566406 -4.09375 32.984375 -3.4375 C 33.085938 -3.257812 33.25 -3 33.46875 -2.65625 C 33.695312 -2.3125 33.914062 -1.9375 34.125 -1.53125 C 34.332031 -1.132812 34.523438 -0.757812 34.703125 -0.40625 C 34.878906 -0.0625 34.984375 0.210938 35.015625 0.421875 C 35.117188 0.867188 35.195312 1.238281 35.25 1.53125 C 35.300781 1.832031 35.304688 2.101562 35.265625 2.34375 C 35.234375 2.582031 35.15625 2.804688 35.03125 3.015625 C 34.914062 3.222656 34.71875 3.453125 34.4375 3.703125 C 33.882812 4.253906 33.207031 4.671875 32.40625 4.953125 C 31.613281 5.234375 30.816406 5.375 30.015625 5.375 C 29.078125 5.375 28.28125 5.128906 27.625 4.640625 C 27.445312 4.492188 27.296875 4.382812 27.171875 4.3125 C 27.054688 4.25 26.925781 4.179688 26.78125 4.109375 C 26.507812 4.003906 26.210938 3.796875 25.890625 3.484375 C 25.578125 3.273438 25.226562 3.015625 24.84375 2.703125 C 24.46875 2.390625 24.097656 2.050781 23.734375 1.6875 C 23.367188 1.320312 23.03125 0.941406 22.71875 0.546875 C 22.40625 0.148438 22.160156 -0.222656 21.984375 -0.578125 C 21.222656 -1.929688 20.363281 -3.289062 19.40625 -4.65625 C 18.457031 -6.03125 17.476562 -7.328125 16.46875 -8.546875 C 16.019531 -9.097656 15.679688 -9.503906 15.453125 -9.765625 C 15.222656 -10.023438 15.09375 -10.175781 15.0625 -10.21875 C 14.988281 -10.25 14.78125 -10.210938 14.4375 -10.109375 C 14.125 -10.003906 13.828125 -9.953125 13.546875 -9.953125 C 13.304688 -9.953125 13.164062 -9.882812 13.125 -9.75 C 13.019531 -9.257812 12.914062 -7.78125 12.8125 -5.3125 C 12.707031 -3.507812 12.617188 -2.050781 12.546875 -0.9375 C 12.484375 0.175781 12.4375 0.921875 12.40625 1.296875 C 12.332031 2.097656 12.207031 2.609375 12.03125 2.828125 C 11.863281 3.054688 11.726562 3.222656 11.625 3.328125 C 11.101562 3.742188 10.335938 4.023438 9.328125 4.171875 C 9.046875 4.234375 8.785156 4.28125 8.546875 4.3125 C 8.304688 4.351562 8.097656 4.410156 7.921875 4.484375 C 7.640625 4.617188 7.414062 4.6875 7.25 4.6875 C 7.175781 4.757812 6.789062 4.617188 6.09375 4.265625 C 5.570312 4.023438 5.117188 3.773438 4.734375 3.515625 C 4.359375 3.253906 4.03125 2.863281 3.75 2.34375 C 3.613281 2.101562 3.5 1.878906 3.40625 1.671875 C 3.320312 1.460938 3.257812 1.253906 3.21875 1.046875 C 3.1875 0.835938 3.171875 0.59375 3.171875 0.3125 C 3.171875 0.03125 3.191406 -0.296875 3.234375 -0.671875 C 3.265625 -1.128906 3.285156 -1.78125 3.296875 -2.625 C 3.316406 -3.476562 3.363281 -4.53125 3.4375 -5.78125 C 3.613281 -10.09375 3.742188 -13.488281 3.828125 -15.96875 C 3.910156 -18.457031 3.972656 -20.097656 4.015625 -20.890625 C 4.046875 -21.929688 4.066406 -22.753906 4.078125 -23.359375 C 4.097656 -23.972656 4.09375 -24.367188 4.0625 -24.546875 C 3.988281 -24.753906 3.796875 -24.992188 3.484375 -25.265625 C 2.960938 -25.753906 2.597656 -26.347656 2.390625 -27.046875 C 2.046875 -28.328125 2.097656 -29.457031 2.546875 -30.4375 C 2.691406 -30.707031 2.765625 -31.242188 2.765625 -32.046875 L 2.765625 -33.1875 L 3.171875 -33.40625 C 3.316406 -33.539062 3.601562 -33.648438 4.03125 -33.734375 C 4.46875 -33.828125 4.773438 -33.875 4.953125 -33.875 L 5 -33.875 C 5.03125 -33.832031 5.15625 -33.832031 5.375 -33.875 C 5.613281 -33.976562 6.894531 -34.238281 9.21875 -34.65625 C 11.925781 -35.175781 14.671875 -35.4375 17.453125 -35.4375 Z M 17.453125 -35.4375 "/></g></g></g><g fill="#ffffff" fill-opacity="1"><g transform="translate(180.936436, 133.831575)"><g><path d="M 23.03125 -35.53125 C 24 -35.570312 25.425781 -35.519531 27.3125 -35.375 C 28.25 -35.3125 29.03125 -35.234375 29.65625 -35.140625 C 30.28125 -35.054688 30.726562 -34.976562 31 -34.90625 C 31.695312 -34.695312 32.253906 -34.195312 32.671875 -33.40625 C 32.773438 -33.226562 32.882812 -33.039062 33 -32.84375 C 33.125 -32.65625 33.273438 -32.441406 33.453125 -32.203125 C 34.078125 -31.441406 34.582031 -30.609375 34.96875 -29.703125 L 35.484375 -28.5625 L 35.328125 -27.984375 C 35.222656 -27.566406 35.117188 -27.28125 35.015625 -27.125 C 34.910156 -26.96875 34.664062 -26.734375 34.28125 -26.421875 C 33.863281 -26.003906 33 -25.65625 31.6875 -25.375 C 31.269531 -25.300781 31.007812 -25.335938 30.90625 -25.484375 C 30.800781 -25.617188 30.625 -25.671875 30.375 -25.640625 C 30.0625 -25.566406 29.890625 -25.515625 29.859375 -25.484375 C 29.785156 -25.410156 29.75 -25.425781 29.75 -25.53125 C 29.75 -25.632812 29.695312 -25.6875 29.59375 -25.6875 C 29.5625 -25.6875 29.425781 -25.773438 29.1875 -25.953125 C 28.769531 -26.265625 28.332031 -26.453125 27.875 -26.515625 C 27.425781 -26.585938 26.59375 -26.59375 25.375 -26.53125 C 24.332031 -26.53125 23.707031 -26.457031 23.5 -26.3125 C 23.289062 -26.101562 23.171875 -25.703125 23.140625 -25.109375 C 22.960938 -23.859375 22.828125 -22.242188 22.734375 -20.265625 C 22.648438 -18.285156 22.578125 -15.835938 22.515625 -12.921875 C 22.410156 -8.234375 22.257812 -4.59375 22.0625 -2 C 21.875 0.582031 21.640625 2.066406 21.359375 2.453125 C 21.148438 2.796875 20.578125 3.070312 19.640625 3.28125 C 19.265625 3.351562 19.078125 3.414062 19.078125 3.46875 C 19.078125 3.519531 19.003906 3.546875 18.859375 3.546875 C 18.722656 3.546875 18.628906 3.578125 18.578125 3.640625 C 18.523438 3.710938 18.484375 3.734375 18.453125 3.703125 C 18.347656 3.628906 18.050781 3.835938 17.5625 4.328125 C 17.28125 4.597656 17.070312 4.679688 16.9375 4.578125 C 16.863281 4.515625 16.722656 4.523438 16.515625 4.609375 C 16.304688 4.691406 16.066406 4.664062 15.796875 4.53125 C 15.023438 4.113281 14.394531 3.382812 13.90625 2.34375 C 13.769531 2.0625 13.648438 1.828125 13.546875 1.640625 C 13.441406 1.453125 13.320312 1.285156 13.1875 1.140625 C 12.832031 0.722656 12.691406 0.0976562 12.765625 -0.734375 C 12.796875 -0.972656 12.835938 -2.066406 12.890625 -4.015625 C 12.941406 -5.960938 13.003906 -8.722656 13.078125 -12.296875 C 13.148438 -15.835938 13.191406 -18.5625 13.203125 -20.46875 C 13.222656 -22.382812 13.21875 -23.566406 13.1875 -24.015625 C 13.1875 -24.398438 13.148438 -24.734375 13.078125 -25.015625 C 13.078125 -25.148438 13.0625 -25.269531 13.03125 -25.375 C 13.03125 -25.375 12.210938 -25.269531 10.578125 -25.0625 C 7.109375 -24.539062 4.882812 -24.316406 3.90625 -24.390625 C 3.175781 -24.492188 2.585938 -24.875 2.140625 -25.53125 C 1.410156 -26.644531 1.097656 -28.191406 1.203125 -30.171875 C 1.265625 -30.929688 1.390625 -31.613281 1.578125 -32.21875 C 1.773438 -32.832031 2.117188 -33.4375 2.609375 -34.03125 C 2.878906 -34.375 3.015625 -34.597656 3.015625 -34.703125 C 3.015625 -34.804688 3.078125 -34.941406 3.203125 -35.109375 C 3.328125 -35.285156 3.441406 -35.375 3.546875 -35.375 C 3.609375 -35.375 3.71875 -35.242188 3.875 -34.984375 C 4.03125 -34.722656 4.144531 -34.472656 4.21875 -34.234375 C 4.351562 -33.992188 4.492188 -33.820312 4.640625 -33.71875 C 4.847656 -33.570312 5.316406 -33.484375 6.046875 -33.453125 C 6.773438 -33.421875 7.453125 -33.4375 8.078125 -33.5 C 9.085938 -33.644531 10.035156 -33.773438 10.921875 -33.890625 C 11.804688 -34.015625 12.644531 -34.144531 13.4375 -34.28125 C 17.613281 -34.976562 20.8125 -35.394531 23.03125 -35.53125 Z M 23.03125 -35.53125 "/></g></g></g><g fill="#9edf9c" fill-opacity="1"><g transform="translate(217.415779, 133.831575)"><g><path d="M 15.84375 -35.640625 C 16.78125 -35.640625 17.722656 -35.566406 18.671875 -35.421875 C 19.628906 -35.285156 20.5625 -35.132812 21.46875 -34.96875 C 21.957031 -34.863281 22.476562 -34.765625 23.03125 -34.671875 C 23.582031 -34.585938 23.894531 -34.546875 23.96875 -34.546875 C 24.488281 -34.441406 24.882812 -34.234375 25.15625 -33.921875 C 25.4375 -33.609375 25.789062 -33 26.21875 -32.09375 L 26.84375 -30.796875 L 26.84375 -29.546875 C 26.84375 -28.742188 26.738281 -28.15625 26.53125 -27.78125 C 26.382812 -27.53125 26.1875 -27.257812 25.9375 -26.96875 C 25.695312 -26.675781 25.429688 -26.394531 25.140625 -26.125 C 24.847656 -25.863281 24.546875 -25.640625 24.234375 -25.453125 C 23.921875 -25.265625 23.609375 -25.171875 23.296875 -25.171875 C 23.085938 -25.171875 22.832031 -25.222656 22.53125 -25.328125 C 22.238281 -25.429688 21.816406 -25.601562 21.265625 -25.84375 C 19.910156 -26.570312 19.078125 -26.9375 18.765625 -26.9375 C 18.585938 -26.9375 18.429688 -27.007812 18.296875 -27.15625 C 18.085938 -27.320312 17.722656 -27.441406 17.203125 -27.515625 C 16.679688 -27.585938 16.242188 -27.585938 15.890625 -27.515625 C 14.984375 -27.335938 14.113281 -26.976562 13.28125 -26.4375 C 12.445312 -25.90625 11.859375 -25.203125 11.515625 -24.328125 C 11.066406 -23.179688 11.082031 -22.242188 11.5625 -21.515625 C 11.738281 -21.242188 12.144531 -20.96875 12.78125 -20.6875 C 13.425781 -20.40625 14.128906 -20.132812 14.890625 -19.875 C 15.660156 -19.613281 16.421875 -19.378906 17.171875 -19.171875 C 17.921875 -18.960938 18.503906 -18.804688 18.921875 -18.703125 C 19.960938 -18.390625 20.992188 -17.984375 22.015625 -17.484375 C 23.035156 -16.984375 23.976562 -16.375 24.84375 -15.65625 C 25.71875 -14.945312 26.484375 -14.148438 27.140625 -13.265625 C 27.804688 -12.378906 28.3125 -11.378906 28.65625 -10.265625 C 29.175781 -8.492188 29.226562 -6.722656 28.8125 -4.953125 C 28.394531 -3.179688 27.507812 -1.53125 26.15625 0 C 23.414062 3.019531 19.382812 4.53125 14.0625 4.53125 C 13.226562 4.53125 12.25 4.457031 11.125 4.3125 C 10 4.175781 8.878906 3.941406 7.765625 3.609375 C 6.648438 3.285156 5.628906 2.851562 4.703125 2.3125 C 3.785156 1.78125 3.101562 1.097656 2.65625 0.265625 C 2.550781 0.0546875 2.472656 -0.109375 2.421875 -0.234375 C 2.367188 -0.359375 2.320312 -0.488281 2.28125 -0.625 C 2.25 -0.757812 2.222656 -0.914062 2.203125 -1.09375 C 2.191406 -1.269531 2.1875 -1.53125 2.1875 -1.875 C 2.1875 -2.78125 2.222656 -3.265625 2.296875 -3.328125 C 2.359375 -3.398438 2.390625 -3.503906 2.390625 -3.640625 C 2.390625 -3.742188 2.359375 -3.832031 2.296875 -3.90625 C 2.222656 -3.976562 2.203125 -4.171875 2.234375 -4.484375 C 2.273438 -4.796875 2.328125 -5.003906 2.390625 -5.109375 C 2.429688 -5.242188 2.429688 -5.363281 2.390625 -5.46875 C 2.328125 -5.539062 2.296875 -5.785156 2.296875 -6.203125 L 2.34375 -6.78125 L 2.390625 -6.671875 C 2.460938 -6.535156 2.535156 -6.585938 2.609375 -6.828125 C 2.609375 -6.898438 2.625 -6.953125 2.65625 -6.984375 C 2.726562 -7.296875 2.78125 -7.554688 2.8125 -7.765625 C 2.8125 -8.003906 2.847656 -8.125 2.921875 -8.125 C 2.984375 -8.125 3.015625 -8.070312 3.015625 -7.96875 C 3.015625 -7.863281 3.15625 -7.550781 3.4375 -7.03125 C 3.820312 -6.269531 4.367188 -5.578125 5.078125 -4.953125 C 5.796875 -4.328125 6.601562 -3.875 7.5 -3.59375 C 7.988281 -3.414062 8.578125 -3.273438 9.265625 -3.171875 C 9.960938 -3.066406 10.660156 -3.015625 11.359375 -3.015625 C 11.984375 -3.015625 12.640625 -3.066406 13.328125 -3.171875 C 14.023438 -3.273438 14.703125 -3.441406 15.359375 -3.671875 C 16.023438 -3.898438 16.617188 -4.222656 17.140625 -4.640625 C 17.660156 -5.054688 18.046875 -5.578125 18.296875 -6.203125 C 18.429688 -6.617188 18.503906 -7.117188 18.515625 -7.703125 C 18.535156 -8.296875 18.460938 -8.695312 18.296875 -8.90625 C 18.046875 -9.1875 17.398438 -9.566406 16.359375 -10.046875 C 15.316406 -10.535156 13.820312 -11.128906 11.875 -11.828125 C 10.59375 -12.273438 9.523438 -12.695312 8.671875 -13.09375 C 7.828125 -13.5 7.160156 -13.875 6.671875 -14.21875 C 5.109375 -15.332031 3.898438 -16.628906 3.046875 -18.109375 C 2.191406 -19.585938 1.765625 -21.296875 1.765625 -23.234375 C 1.765625 -24.273438 1.960938 -25.367188 2.359375 -26.515625 C 2.765625 -27.671875 3.3125 -28.75 4 -29.75 C 4.695312 -30.757812 5.5 -31.660156 6.40625 -32.453125 C 7.3125 -33.253906 8.25 -33.863281 9.21875 -34.28125 C 10.332031 -34.738281 11.414062 -35.078125 12.46875 -35.296875 C 13.53125 -35.523438 14.65625 -35.640625 15.84375 -35.640625 Z M 15.84375 -35.640625 "/></g></g></g><g fill="#9edf9c" fill-opacity="1"><g transform="translate(248.107878, 133.831575)"><g><path d="M 18.5 -35.6875 C 19.125 -35.789062 19.890625 -35.84375 20.796875 -35.84375 C 21.796875 -35.84375 22.78125 -35.828125 23.75 -35.796875 C 24.726562 -35.765625 25.707031 -35.660156 26.6875 -35.484375 C 27.894531 -35.304688 28.796875 -34.71875 29.390625 -33.71875 C 29.492188 -33.539062 29.570312 -33.40625 29.625 -33.3125 C 29.675781 -33.226562 29.738281 -33.15625 29.8125 -33.09375 C 29.945312 -32.945312 29.992188 -32.847656 29.953125 -32.796875 C 29.921875 -32.742188 30.007812 -32.507812 30.21875 -32.09375 C 30.363281 -31.925781 30.46875 -31.738281 30.53125 -31.53125 C 30.601562 -31.320312 30.675781 -31.078125 30.75 -30.796875 C 30.8125 -30.554688 30.851562 -30.320312 30.875 -30.09375 C 30.894531 -29.863281 30.867188 -29.644531 30.796875 -29.4375 C 30.660156 -28.644531 30.398438 -28.09375 30.015625 -27.78125 C 29.703125 -27.53125 29.21875 -27.425781 28.5625 -27.46875 C 28.070312 -27.53125 27.703125 -27.492188 27.453125 -27.359375 C 27.210938 -27.222656 26.972656 -27.222656 26.734375 -27.359375 C 26.597656 -27.460938 26.300781 -27.476562 25.84375 -27.40625 C 25.007812 -27.238281 23.953125 -27.132812 22.671875 -27.09375 C 22.316406 -27.0625 21.800781 -27.007812 21.125 -26.9375 C 20.445312 -26.875 19.625 -26.769531 18.65625 -26.625 C 18.207031 -26.5625 17.960938 -26.546875 17.921875 -26.578125 C 17.921875 -26.578125 18.078125 -26.679688 18.390625 -26.890625 C 18.671875 -27.066406 18.800781 -27.1875 18.78125 -27.25 C 18.769531 -27.320312 18.585938 -27.359375 18.234375 -27.359375 C 18.066406 -27.359375 17.695312 -27.296875 17.125 -27.171875 C 16.550781 -27.054688 15.945312 -26.921875 15.3125 -26.765625 C 14.6875 -26.609375 14.113281 -26.453125 13.59375 -26.296875 C 13.070312 -26.140625 12.757812 -26.003906 12.65625 -25.890625 C 12.625 -25.859375 12.570312 -25.613281 12.5 -25.15625 C 12.4375 -24.707031 12.382812 -24.210938 12.34375 -23.671875 C 12.3125 -23.140625 12.273438 -22.640625 12.234375 -22.171875 C 12.203125 -21.703125 12.1875 -21.398438 12.1875 -21.265625 C 12.15625 -20.222656 12.15625 -19.703125 12.1875 -19.703125 C 12.226562 -19.703125 12.5 -19.742188 13 -19.828125 C 13.5 -19.910156 14.21875 -20.039062 15.15625 -20.21875 C 16.414062 -20.457031 17.648438 -20.628906 18.859375 -20.734375 C 20.078125 -20.835938 21.328125 -20.890625 22.609375 -20.890625 C 25.492188 -20.890625 27.269531 -20.734375 27.9375 -20.421875 C 28.3125 -20.253906 28.617188 -19.992188 28.859375 -19.640625 C 29.109375 -19.296875 29.234375 -18.953125 29.234375 -18.609375 C 29.234375 -18.535156 29.375 -18.117188 29.65625 -17.359375 C 29.863281 -16.734375 30.007812 -16.164062 30.09375 -15.65625 C 30.175781 -15.15625 30.132812 -14.726562 29.96875 -14.375 C 29.6875 -13.789062 29.351562 -13.382812 28.96875 -13.15625 C 28.59375 -12.925781 27.953125 -12.757812 27.046875 -12.65625 C 26.523438 -12.59375 26.1875 -12.523438 26.03125 -12.453125 C 25.875 -12.378906 25.617188 -12.328125 25.265625 -12.296875 C 24.992188 -12.222656 24.820312 -12.175781 24.75 -12.15625 C 24.675781 -12.144531 24.554688 -12.175781 24.390625 -12.25 C 24.179688 -12.3125 24.03125 -12.304688 23.9375 -12.234375 C 23.851562 -12.171875 23.707031 -12.207031 23.5 -12.34375 C 23.320312 -12.445312 23.144531 -12.539062 22.96875 -12.625 C 22.800781 -12.71875 22.628906 -12.765625 22.453125 -12.765625 C 22.242188 -12.765625 21.941406 -12.738281 21.546875 -12.6875 C 21.148438 -12.632812 20.617188 -12.570312 19.953125 -12.5 C 18.703125 -12.332031 18.046875 -12.28125 17.984375 -12.34375 C 18.015625 -12.382812 17.992188 -12.421875 17.921875 -12.453125 C 17.367188 -12.628906 16.898438 -12.644531 16.515625 -12.5 C 16.304688 -12.4375 16.148438 -12.40625 16.046875 -12.40625 C 15.941406 -12.40625 15.960938 -12.457031 16.109375 -12.5625 C 16.210938 -12.625 16.253906 -12.65625 16.234375 -12.65625 C 16.210938 -12.65625 16.132812 -12.65625 16 -12.65625 C 15.96875 -12.625 15.6875 -12.570312 15.15625 -12.5 C 14.257812 -12.332031 13.554688 -12.203125 13.046875 -12.109375 C 12.546875 -12.023438 12.257812 -11.945312 12.1875 -11.875 C 12.082031 -11.769531 12.003906 -11.394531 11.953125 -10.75 C 11.898438 -10.113281 11.859375 -9.40625 11.828125 -8.625 C 11.796875 -7.84375 11.78125 -7.078125 11.78125 -6.328125 C 11.78125 -5.585938 11.78125 -5.078125 11.78125 -4.796875 C 11.738281 -4.648438 13.128906 -4.679688 15.953125 -4.890625 C 17.859375 -5.066406 19.441406 -5.195312 20.703125 -5.28125 C 21.972656 -5.375 23.253906 -5.421875 24.546875 -5.421875 C 24.785156 -5.421875 25.125 -5.410156 25.5625 -5.390625 C 26 -5.378906 26.441406 -5.351562 26.890625 -5.3125 C 27.335938 -5.28125 27.753906 -5.21875 28.140625 -5.125 C 28.523438 -5.039062 28.769531 -4.929688 28.875 -4.796875 C 28.976562 -4.691406 29.035156 -4.613281 29.046875 -4.5625 C 29.066406 -4.507812 29.09375 -4.457031 29.125 -4.40625 C 29.164062 -4.351562 29.226562 -4.265625 29.3125 -4.140625 C 29.394531 -4.015625 29.539062 -3.847656 29.75 -3.640625 C 30.132812 -3.222656 30.472656 -2.691406 30.765625 -2.046875 C 31.066406 -1.410156 31.25 -0.832031 31.3125 -0.3125 C 31.414062 0.0703125 31.453125 0.445312 31.421875 0.8125 C 31.390625 1.175781 31.320312 1.515625 31.21875 1.828125 C 31.070312 2.242188 30.800781 2.625 30.40625 2.96875 C 30.007812 3.3125 29.53125 3.609375 28.96875 3.859375 C 28.59375 3.992188 28.117188 4.09375 27.546875 4.15625 C 26.972656 4.226562 26.597656 4.234375 26.421875 4.171875 C 26.285156 4.066406 26.003906 4.015625 25.578125 4.015625 C 25.410156 3.972656 25.273438 3.941406 25.171875 3.921875 C 25.066406 3.910156 24.925781 3.890625 24.75 3.859375 C 24.570312 3.785156 24.390625 3.726562 24.203125 3.6875 C 24.015625 3.65625 23.78125 3.625 23.5 3.59375 C 23.320312 3.5625 23.0625 3.519531 22.71875 3.46875 C 22.375 3.414062 22.148438 3.390625 22.046875 3.390625 C 21.378906 3.285156 20.769531 3.207031 20.21875 3.15625 C 19.664062 3.101562 18.847656 3.078125 17.765625 3.078125 C 16.128906 3.078125 14.476562 3.128906 12.8125 3.234375 C 11.144531 3.335938 9.53125 3.578125 7.96875 3.953125 C 7.445312 4.054688 6.925781 4.109375 6.40625 4.109375 C 5.75 4.109375 5.125 3.910156 4.53125 3.515625 C 3.9375 3.117188 3.503906 2.625 3.234375 2.03125 C 2.878906 1.125 2.804688 0.203125 3.015625 -0.734375 C 3.054688 -0.898438 3.101562 -1.113281 3.15625 -1.375 C 3.207031 -1.632812 3.234375 -1.941406 3.234375 -2.296875 C 3.296875 -3.960938 3.351562 -5.628906 3.40625 -7.296875 C 3.457031 -8.960938 3.519531 -10.628906 3.59375 -12.296875 C 3.59375 -12.609375 3.597656 -13.003906 3.609375 -13.484375 C 3.628906 -13.972656 3.648438 -14.460938 3.671875 -14.953125 C 3.691406 -15.441406 3.707031 -15.882812 3.71875 -16.28125 C 3.738281 -16.6875 3.765625 -16.957031 3.796875 -17.09375 C 3.796875 -17.820312 3.804688 -18.617188 3.828125 -19.484375 C 3.847656 -20.359375 3.875 -21.347656 3.90625 -22.453125 L 3.953125 -26.0625 L 3.59375 -26.578125 C 3.175781 -27.097656 2.847656 -27.929688 2.609375 -29.078125 C 2.296875 -30.429688 2.15625 -31.382812 2.1875 -31.9375 C 2.21875 -32.25 2.273438 -32.570312 2.359375 -32.90625 C 2.453125 -33.238281 2.617188 -33.539062 2.859375 -33.8125 C 3.109375 -34.0625 3.316406 -34.1875 3.484375 -34.1875 C 3.691406 -34.1875 3.816406 -34.253906 3.859375 -34.390625 C 3.921875 -34.671875 4.179688 -34.757812 4.640625 -34.65625 C 4.910156 -34.582031 5.109375 -34.5 5.234375 -34.40625 C 5.359375 -34.320312 5.472656 -34.195312 5.578125 -34.03125 C 5.648438 -33.925781 5.71875 -33.875 5.78125 -33.875 C 5.851562 -33.875 6.082031 -33.890625 6.46875 -33.921875 C 6.988281 -33.953125 7.671875 -34.019531 8.515625 -34.125 C 9.367188 -34.226562 10.382812 -34.421875 11.5625 -34.703125 C 13.820312 -35.148438 16.132812 -35.476562 18.5 -35.6875 Z M 18.5 -35.6875 "/></g></g></g><g fill="#9edf9c" fill-opacity="1"><g transform="translate(280.832219, 133.831575)"><g><path d="M 18.453125 -27.515625 C 17.515625 -27.515625 16.4375 -27.375 15.21875 -27.09375 C 14.519531 -26.988281 14.117188 -26.898438 14.015625 -26.828125 C 13.910156 -26.765625 13.875 -26.539062 13.90625 -26.15625 C 13.945312 -25.914062 13.957031 -25.613281 13.9375 -25.25 C 13.914062 -24.882812 13.875 -24.457031 13.8125 -23.96875 C 13.769531 -23.519531 13.738281 -22.972656 13.71875 -22.328125 C 13.707031 -21.679688 13.664062 -20.925781 13.59375 -20.0625 C 13.488281 -18.363281 13.457031 -17.492188 13.5 -17.453125 C 13.601562 -17.347656 14.207031 -17.453125 15.3125 -17.765625 C 15.84375 -17.910156 16.421875 -18.085938 17.046875 -18.296875 C 17.671875 -18.503906 18.273438 -18.753906 18.859375 -19.046875 C 19.453125 -19.335938 20 -19.675781 20.5 -20.0625 C 21.007812 -20.445312 21.421875 -20.863281 21.734375 -21.3125 C 22.179688 -22.007812 22.40625 -22.945312 22.40625 -24.125 C 22.332031 -25.519531 22 -26.429688 21.40625 -26.859375 C 20.820312 -27.296875 19.835938 -27.515625 18.453125 -27.515625 Z M 17.453125 -35.4375 C 18.078125 -35.4375 18.796875 -35.398438 19.609375 -35.328125 C 20.429688 -35.253906 21.238281 -35.148438 22.03125 -35.015625 C 22.832031 -34.878906 23.613281 -34.707031 24.375 -34.5 C 25.144531 -34.289062 25.789062 -34.046875 26.3125 -33.765625 C 28.125 -32.828125 29.632812 -31.679688 30.84375 -30.328125 C 32.0625 -28.972656 32.828125 -27.582031 33.140625 -26.15625 C 33.523438 -24.519531 33.457031 -22.851562 32.9375 -21.15625 C 32.832031 -20.707031 32.675781 -20.25 32.46875 -19.78125 C 32.257812 -19.3125 32.03125 -18.859375 31.78125 -18.421875 C 31.539062 -17.984375 31.28125 -17.582031 31 -17.21875 C 30.726562 -16.851562 30.46875 -16.566406 30.21875 -16.359375 C 29.945312 -16.117188 29.710938 -15.898438 29.515625 -15.703125 C 29.328125 -15.515625 29.164062 -15.351562 29.03125 -15.21875 C 28.363281 -14.59375 27.976562 -14.28125 27.875 -14.28125 C 27.84375 -14.382812 27.789062 -14.4375 27.71875 -14.4375 C 27.65625 -14.4375 27.625 -14.398438 27.625 -14.328125 C 27.625 -14.253906 27.46875 -14.113281 27.15625 -13.90625 C 26.695312 -13.738281 26.347656 -13.53125 26.109375 -13.28125 C 25.691406 -12.96875 25.378906 -12.78125 25.171875 -12.71875 L 24.859375 -12.5625 C 24.816406 -12.5625 24.78125 -12.539062 24.75 -12.5 C 24.75 -12.363281 25.757812 -11.289062 27.78125 -9.28125 C 29.0625 -7.957031 30.144531 -6.816406 31.03125 -5.859375 C 31.914062 -4.898438 32.566406 -4.09375 32.984375 -3.4375 C 33.085938 -3.257812 33.25 -3 33.46875 -2.65625 C 33.695312 -2.3125 33.914062 -1.9375 34.125 -1.53125 C 34.332031 -1.132812 34.523438 -0.757812 34.703125 -0.40625 C 34.878906 -0.0625 34.984375 0.210938 35.015625 0.421875 C 35.117188 0.867188 35.195312 1.238281 35.25 1.53125 C 35.300781 1.832031 35.304688 2.101562 35.265625 2.34375 C 35.234375 2.582031 35.15625 2.804688 35.03125 3.015625 C 34.914062 3.222656 34.71875 3.453125 34.4375 3.703125 C 33.882812 4.253906 33.207031 4.671875 32.40625 4.953125 C 31.613281 5.234375 30.816406 5.375 30.015625 5.375 C 29.078125 5.375 28.28125 5.128906 27.625 4.640625 C 27.445312 4.492188 27.296875 4.382812 27.171875 4.3125 C 27.054688 4.25 26.925781 4.179688 26.78125 4.109375 C 26.507812 4.003906 26.210938 3.796875 25.890625 3.484375 C 25.578125 3.273438 25.226562 3.015625 24.84375 2.703125 C 24.46875 2.390625 24.097656 2.050781 23.734375 1.6875 C 23.367188 1.320312 23.03125 0.941406 22.71875 0.546875 C 22.40625 0.148438 22.160156 -0.222656 21.984375 -0.578125 C 21.222656 -1.929688 20.363281 -3.289062 19.40625 -4.65625 C 18.457031 -6.03125 17.476562 -7.328125 16.46875 -8.546875 C 16.019531 -9.097656 15.679688 -9.503906 15.453125 -9.765625 C 15.222656 -10.023438 15.09375 -10.175781 15.0625 -10.21875 C 14.988281 -10.25 14.78125 -10.210938 14.4375 -10.109375 C 14.125 -10.003906 13.828125 -9.953125 13.546875 -9.953125 C 13.304688 -9.953125 13.164062 -9.882812 13.125 -9.75 C 13.019531 -9.257812 12.914062 -7.78125 12.8125 -5.3125 C 12.707031 -3.507812 12.617188 -2.050781 12.546875 -0.9375 C 12.484375 0.175781 12.4375 0.921875 12.40625 1.296875 C 12.332031 2.097656 12.207031 2.609375 12.03125 2.828125 C 11.863281 3.054688 11.726562 3.222656 11.625 3.328125 C 11.101562 3.742188 10.335938 4.023438 9.328125 4.171875 C 9.046875 4.234375 8.785156 4.28125 8.546875 4.3125 C 8.304688 4.351562 8.097656 4.410156 7.921875 4.484375 C 7.640625 4.617188 7.414062 4.6875 7.25 4.6875 C 7.175781 4.757812 6.789062 4.617188 6.09375 4.265625 C 5.570312 4.023438 5.117188 3.773438 4.734375 3.515625 C 4.359375 3.253906 4.03125 2.863281 3.75 2.34375 C 3.613281 2.101562 3.5 1.878906 3.40625 1.671875 C 3.320312 1.460938 3.257812 1.253906 3.21875 1.046875 C 3.1875 0.835938 3.171875 0.59375 3.171875 0.3125 C 3.171875 0.03125 3.191406 -0.296875 3.234375 -0.671875 C 3.265625 -1.128906 3.285156 -1.78125 3.296875 -2.625 C 3.316406 -3.476562 3.363281 -4.53125 3.4375 -5.78125 C 3.613281 -10.09375 3.742188 -13.488281 3.828125 -15.96875 C 3.910156 -18.457031 3.972656 -20.097656 4.015625 -20.890625 C 4.046875 -21.929688 4.066406 -22.753906 4.078125 -23.359375 C 4.097656 -23.972656 4.09375 -24.367188 4.0625 -24.546875 C 3.988281 -24.753906 3.796875 -24.992188 3.484375 -25.265625 C 2.960938 -25.753906 2.597656 -26.347656 2.390625 -27.046875 C 2.046875 -28.328125 2.097656 -29.457031 2.546875 -30.4375 C 2.691406 -30.707031 2.765625 -31.242188 2.765625 -32.046875 L 2.765625 -33.1875 L 3.171875 -33.40625 C 3.316406 -33.539062 3.601562 -33.648438 4.03125 -33.734375 C 4.46875 -33.828125 4.773438 -33.875 4.953125 -33.875 L 5 -33.875 C 5.03125 -33.832031 5.15625 -33.832031 5.375 -33.875 C 5.613281 -33.976562 6.894531 -34.238281 9.21875 -34.65625 C 11.925781 -35.175781 14.671875 -35.4375 17.453125 -35.4375 Z M 17.453125 -35.4375 "/></g></g></g><g fill="#9edf9c" fill-opacity="1"><g transform="translate(317.464708, 133.831575)"><g><path d="M 30.125 -36.0625 C 30.226562 -36.09375 30.503906 -36.097656 30.953125 -36.078125 C 31.398438 -36.066406 32.023438 -36.039062 32.828125 -36 C 34.421875 -35.96875 35.375 -35.914062 35.6875 -35.84375 C 36.21875 -35.738281 36.75 -35.570312 37.28125 -35.34375 C 37.820312 -35.125 38.144531 -34.945312 38.25 -34.8125 C 38.488281 -34.53125 38.660156 -34.039062 38.765625 -33.34375 C 38.835938 -32.925781 38.421875 -31.414062 37.515625 -28.8125 C 37.273438 -28.050781 37.054688 -27.410156 36.859375 -26.890625 C 36.671875 -26.367188 36.507812 -25.953125 36.375 -25.640625 C 36.09375 -24.972656 35.65625 -23.898438 35.0625 -22.421875 C 34.476562 -20.953125 33.75 -19.019531 32.875 -16.625 C 32.601562 -15.925781 32.328125 -15.191406 32.046875 -14.421875 C 31.765625 -13.660156 31.46875 -12.847656 31.15625 -11.984375 C 30.53125 -10.316406 29.992188 -8.875 29.546875 -7.65625 C 29.097656 -6.445312 28.734375 -5.441406 28.453125 -4.640625 C 28.242188 -4.046875 28.050781 -3.492188 27.875 -2.984375 C 27.707031 -2.484375 27.550781 -2.023438 27.40625 -1.609375 C 26.675781 0.265625 26.207031 1.410156 26 1.828125 C 25.894531 1.992188 25.84375 2.128906 25.84375 2.234375 C 25.84375 2.378906 25.765625 2.546875 25.609375 2.734375 C 25.453125 2.921875 25.269531 3.109375 25.0625 3.296875 C 24.851562 3.492188 24.617188 3.648438 24.359375 3.765625 C 24.097656 3.890625 23.863281 3.953125 23.65625 3.953125 C 23.445312 3.992188 23.269531 4.015625 23.125 4.015625 C 22.988281 4.015625 22.890625 4.03125 22.828125 4.0625 C 22.023438 4.195312 21.207031 4.28125 20.375 4.3125 C 19.539062 4.351562 18.722656 4.375 17.921875 4.375 C 16.878906 4.375 15.929688 4.21875 15.078125 3.90625 C 14.234375 3.59375 13.566406 2.914062 13.078125 1.875 C 12.972656 1.632812 12.820312 1.191406 12.625 0.546875 C 12.4375 -0.0976562 12.207031 -0.941406 11.9375 -1.984375 C 11.6875 -2.878906 11.378906 -3.910156 11.015625 -5.078125 C 10.648438 -6.242188 10.207031 -7.554688 9.6875 -9.015625 C 8.820312 -11.585938 8.109375 -13.710938 7.546875 -15.390625 C 6.992188 -17.078125 6.597656 -18.359375 6.359375 -19.234375 C 5.804688 -21.210938 5.3125 -22.910156 4.875 -24.328125 C 4.4375 -25.753906 4.0625 -26.90625 3.75 -27.78125 C 3.125 -29.445312 2.515625 -30.644531 1.921875 -31.375 C 1.472656 -31.820312 1.195312 -32.304688 1.09375 -32.828125 C 0.914062 -33.523438 1.125 -34.132812 1.71875 -34.65625 L 2.1875 -35.171875 L 3.484375 -35.28125 C 3.898438 -35.3125 4.34375 -35.332031 4.8125 -35.34375 C 5.289062 -35.363281 5.769531 -35.359375 6.25 -35.328125 C 8.582031 -35.253906 10.234375 -34.992188 11.203125 -34.546875 C 12.378906 -34.097656 13.175781 -33.4375 13.59375 -32.5625 C 13.84375 -32.113281 14.488281 -29.679688 15.53125 -25.265625 C 15.601562 -25.054688 15.71875 -24.601562 15.875 -23.90625 C 16.03125 -23.21875 16.242188 -22.265625 16.515625 -21.046875 C 16.898438 -19.554688 17.226562 -18.203125 17.5 -16.984375 C 17.78125 -15.765625 18.046875 -14.65625 18.296875 -13.65625 C 18.566406 -12.363281 18.796875 -11.316406 18.984375 -10.515625 C 19.179688 -9.722656 19.347656 -9.171875 19.484375 -8.859375 L 19.640625 -8.4375 L 19.796875 -8.90625 C 19.867188 -9.050781 19.957031 -9.285156 20.0625 -9.609375 C 20.164062 -9.941406 20.304688 -10.351562 20.484375 -10.84375 C 20.546875 -11.050781 20.65625 -11.441406 20.8125 -12.015625 C 20.96875 -12.585938 21.1875 -13.359375 21.46875 -14.328125 C 24.875 -25.484375 26.578125 -31.945312 26.578125 -33.71875 C 26.578125 -34.0625 26.644531 -34.316406 26.78125 -34.484375 C 26.925781 -34.660156 27.3125 -34.941406 27.9375 -35.328125 C 28.488281 -35.671875 28.972656 -35.878906 29.390625 -35.953125 C 29.566406 -35.984375 29.710938 -36 29.828125 -36 C 29.953125 -36 30.050781 -36.019531 30.125 -36.0625 Z M 30.125 -36.0625 "/></g></g></g><g fill="#9edf9c" fill-opacity="1"><g transform="translate(357.432162, 133.831575)"><g><path d="M 18.5 -35.6875 C 19.125 -35.789062 19.890625 -35.84375 20.796875 -35.84375 C 21.796875 -35.84375 22.78125 -35.828125 23.75 -35.796875 C 24.726562 -35.765625 25.707031 -35.660156 26.6875 -35.484375 C 27.894531 -35.304688 28.796875 -34.71875 29.390625 -33.71875 C 29.492188 -33.539062 29.570312 -33.40625 29.625 -33.3125 C 29.675781 -33.226562 29.738281 -33.15625 29.8125 -33.09375 C 29.945312 -32.945312 29.992188 -32.847656 29.953125 -32.796875 C 29.921875 -32.742188 30.007812 -32.507812 30.21875 -32.09375 C 30.363281 -31.925781 30.46875 -31.738281 30.53125 -31.53125 C 30.601562 -31.320312 30.675781 -31.078125 30.75 -30.796875 C 30.8125 -30.554688 30.851562 -30.320312 30.875 -30.09375 C 30.894531 -29.863281 30.867188 -29.644531 30.796875 -29.4375 C 30.660156 -28.644531 30.398438 -28.09375 30.015625 -27.78125 C 29.703125 -27.53125 29.21875 -27.425781 28.5625 -27.46875 C 28.070312 -27.53125 27.703125 -27.492188 27.453125 -27.359375 C 27.210938 -27.222656 26.972656 -27.222656 26.734375 -27.359375 C 26.597656 -27.460938 26.300781 -27.476562 25.84375 -27.40625 C 25.007812 -27.238281 23.953125 -27.132812 22.671875 -27.09375 C 22.316406 -27.0625 21.800781 -27.007812 21.125 -26.9375 C 20.445312 -26.875 19.625 -26.769531 18.65625 -26.625 C 18.207031 -26.5625 17.960938 -26.546875 17.921875 -26.578125 C 17.921875 -26.578125 18.078125 -26.679688 18.390625 -26.890625 C 18.671875 -27.066406 18.800781 -27.1875 18.78125 -27.25 C 18.769531 -27.320312 18.585938 -27.359375 18.234375 -27.359375 C 18.066406 -27.359375 17.695312 -27.296875 17.125 -27.171875 C 16.550781 -27.054688 15.945312 -26.921875 15.3125 -26.765625 C 14.6875 -26.609375 14.113281 -26.453125 13.59375 -26.296875 C 13.070312 -26.140625 12.757812 -26.003906 12.65625 -25.890625 C 12.625 -25.859375 12.570312 -25.613281 12.5 -25.15625 C 12.4375 -24.707031 12.382812 -24.210938 12.34375 -23.671875 C 12.3125 -23.140625 12.273438 -22.640625 12.234375 -22.171875 C 12.203125 -21.703125 12.1875 -21.398438 12.1875 -21.265625 C 12.15625 -20.222656 12.15625 -19.703125 12.1875 -19.703125 C 12.226562 -19.703125 12.5 -19.742188 13 -19.828125 C 13.5 -19.910156 14.21875 -20.039062 15.15625 -20.21875 C 16.414062 -20.457031 17.648438 -20.628906 18.859375 -20.734375 C 20.078125 -20.835938 21.328125 -20.890625 22.609375 -20.890625 C 25.492188 -20.890625 27.269531 -20.734375 27.9375 -20.421875 C 28.3125 -20.253906 28.617188 -19.992188 28.859375 -19.640625 C 29.109375 -19.296875 29.234375 -18.953125 29.234375 -18.609375 C 29.234375 -18.535156 29.375 -18.117188 29.65625 -17.359375 C 29.863281 -16.734375 30.007812 -16.164062 30.09375 -15.65625 C 30.175781 -15.15625 30.132812 -14.726562 29.96875 -14.375 C 29.6875 -13.789062 29.351562 -13.382812 28.96875 -13.15625 C 28.59375 -12.925781 27.953125 -12.757812 27.046875 -12.65625 C 26.523438 -12.59375 26.1875 -12.523438 26.03125 -12.453125 C 25.875 -12.378906 25.617188 -12.328125 25.265625 -12.296875 C 24.992188 -12.222656 24.820312 -12.175781 24.75 -12.15625 C 24.675781 -12.144531 24.554688 -12.175781 24.390625 -12.25 C 24.179688 -12.3125 24.03125 -12.304688 23.9375 -12.234375 C 23.851562 -12.171875 23.707031 -12.207031 23.5 -12.34375 C 23.320312 -12.445312 23.144531 -12.539062 22.96875 -12.625 C 22.800781 -12.71875 22.628906 -12.765625 22.453125 -12.765625 C 22.242188 -12.765625 21.941406 -12.738281 21.546875 -12.6875 C 21.148438 -12.632812 20.617188 -12.570312 19.953125 -12.5 C 18.703125 -12.332031 18.046875 -12.28125 17.984375 -12.34375 C 18.015625 -12.382812 17.992188 -12.421875 17.921875 -12.453125 C 17.367188 -12.628906 16.898438 -12.644531 16.515625 -12.5 C 16.304688 -12.4375 16.148438 -12.40625 16.046875 -12.40625 C 15.941406 -12.40625 15.960938 -12.457031 16.109375 -12.5625 C 16.210938 -12.625 16.253906 -12.65625 16.234375 -12.65625 C 16.210938 -12.65625 16.132812 -12.65625 16 -12.65625 C 15.96875 -12.625 15.6875 -12.570312 15.15625 -12.5 C 14.257812 -12.332031 13.554688 -12.203125 13.046875 -12.109375 C 12.546875 -12.023438 12.257812 -11.945312 12.1875 -11.875 C 12.082031 -11.769531 12.003906 -11.394531 11.953125 -10.75 C 11.898438 -10.113281 11.859375 -9.40625 11.828125 -8.625 C 11.796875 -7.84375 11.78125 -7.078125 11.78125 -6.328125 C 11.78125 -5.585938 11.78125 -5.078125 11.78125 -4.796875 C 11.738281 -4.648438 13.128906 -4.679688 15.953125 -4.890625 C 17.859375 -5.066406 19.441406 -5.195312 20.703125 -5.28125 C 21.972656 -5.375 23.253906 -5.421875 24.546875 -5.421875 C 24.785156 -5.421875 25.125 -5.410156 25.5625 -5.390625 C 26 -5.378906 26.441406 -5.351562 26.890625 -5.3125 C 27.335938 -5.28125 27.753906 -5.21875 28.140625 -5.125 C 28.523438 -5.039062 28.769531 -4.929688 28.875 -4.796875 C 28.976562 -4.691406 29.035156 -4.613281 29.046875 -4.5625 C 29.066406 -4.507812 29.09375 -4.457031 29.125 -4.40625 C 29.164062 -4.351562 29.226562 -4.265625 29.3125 -4.140625 C 29.394531 -4.015625 29.539062 -3.847656 29.75 -3.640625 C 30.132812 -3.222656 30.472656 -2.691406 30.765625 -2.046875 C 31.066406 -1.410156 31.25 -0.832031 31.3125 -0.3125 C 31.414062 0.0703125 31.453125 0.445312 31.421875 0.8125 C 31.390625 1.175781 31.320312 1.515625 31.21875 1.828125 C 31.070312 2.242188 30.800781 2.625 30.40625 2.96875 C 30.007812 3.3125 29.53125 3.609375 28.96875 3.859375 C 28.59375 3.992188 28.117188 4.09375 27.546875 4.15625 C 26.972656 4.226562 26.597656 4.234375 26.421875 4.171875 C 26.285156 4.066406 26.003906 4.015625 25.578125 4.015625 C 25.410156 3.972656 25.273438 3.941406 25.171875 3.921875 C 25.066406 3.910156 24.925781 3.890625 24.75 3.859375 C 24.570312 3.785156 24.390625 3.726562 24.203125 3.6875 C 24.015625 3.65625 23.78125 3.625 23.5 3.59375 C 23.320312 3.5625 23.0625 3.519531 22.71875 3.46875 C 22.375 3.414062 22.148438 3.390625 22.046875 3.390625 C 21.378906 3.285156 20.769531 3.207031 20.21875 3.15625 C 19.664062 3.101562 18.847656 3.078125 17.765625 3.078125 C 16.128906 3.078125 14.476562 3.128906 12.8125 3.234375 C 11.144531 3.335938 9.53125 3.578125 7.96875 3.953125 C 7.445312 4.054688 6.925781 4.109375 6.40625 4.109375 C 5.75 4.109375 5.125 3.910156 4.53125 3.515625 C 3.9375 3.117188 3.503906 2.625 3.234375 2.03125 C 2.878906 1.125 2.804688 0.203125 3.015625 -0.734375 C 3.054688 -0.898438 3.101562 -1.113281 3.15625 -1.375 C 3.207031 -1.632812 3.234375 -1.941406 3.234375 -2.296875 C 3.296875 -3.960938 3.351562 -5.628906 3.40625 -7.296875 C 3.457031 -8.960938 3.519531 -10.628906 3.59375 -12.296875 C 3.59375 -12.609375 3.597656 -13.003906 3.609375 -13.484375 C 3.628906 -13.972656 3.648438 -14.460938 3.671875 -14.953125 C 3.691406 -15.441406 3.707031 -15.882812 3.71875 -16.28125 C 3.738281 -16.6875 3.765625 -16.957031 3.796875 -17.09375 C 3.796875 -17.820312 3.804688 -18.617188 3.828125 -19.484375 C 3.847656 -20.359375 3.875 -21.347656 3.90625 -22.453125 L 3.953125 -26.0625 L 3.59375 -26.578125 C 3.175781 -27.097656 2.847656 -27.929688 2.609375 -29.078125 C 2.296875 -30.429688 2.15625 -31.382812 2.1875 -31.9375 C 2.21875 -32.25 2.273438 -32.570312 2.359375 -32.90625 C 2.453125 -33.238281 2.617188 -33.539062 2.859375 -33.8125 C 3.109375 -34.0625 3.316406 -34.1875 3.484375 -34.1875 C 3.691406 -34.1875 3.816406 -34.253906 3.859375 -34.390625 C 3.921875 -34.671875 4.179688 -34.757812 4.640625 -34.65625 C 4.910156 -34.582031 5.109375 -34.5 5.234375 -34.40625 C 5.359375 -34.320312 5.472656 -34.195312 5.578125 -34.03125 C 5.648438 -33.925781 5.71875 -33.875 5.78125 -33.875 C 5.851562 -33.875 6.082031 -33.890625 6.46875 -33.921875 C 6.988281 -33.953125 7.671875 -34.019531 8.515625 -34.125 C 9.367188 -34.226562 10.382812 -34.421875 11.5625 -34.703125 C 13.820312 -35.148438 16.132812 -35.476562 18.5 -35.6875 Z M 18.5 -35.6875 "/></g></g></g></svg>